<svg data-v-70b83f88="" version="1.0" xmlns="http://www.w3.org/2000/svg" xmlns:xlink="http://www.w3.org/1999/xlink" width="100%" height="100%" viewBox="0 0 340.000000 250.000000" preserveAspectRatio="xMidYMid meet" color-interpolation-filters="sRGB" style="margin: auto;"> <rect data-v-70b83f88="" x="0" y="0" width="100%" height="100%" fill="#ffffff" fill-opacity="1" class="background"></rect> <rect data-v-70b83f88="" x="0" y="0" width="100%" height="100%" fill="url(#watermark)" fill-opacity="1" class="watermarklayer"></rect> <g data-v-70b83f88="" fill="#1ba0d8" class="icon-text-wrapper icon-svg-group iconsvg" transform="translate(140,95.25078582763672)"><g class="iconsvg-imagesvg" transform="translate(0,0)"><g><rect fill="#1ba0d8" fill-opacity="0" stroke-width="2" x="0" y="0" width="60" height="59.49842824985374" class="image-rect"></rect> <svg x="0" y="0" width="60" height="59.49842824985374" filtersec="colorsb5003721883" class="image-svg-svg primary" style="overflow: visible;"><svg xmlns="http://www.w3.org/2000/svg" viewBox="-0.011029243469238281 0.0028007030487060547 595.291015625 590.3172607421875"><g><g><path d="M236.43 313.29c14.2-27.5 32.27-51.83 53.28-73.81 17.84-18.67 36.89-35.86 57.77-50.81 6.47-4.63 9.47-3 11.33 4.6 1.71 7 4.69 13.73 6.45 20.75 1.88 7.5 6.14 9.91 13.33 9.86 34.27-.26 68.54-.12 102.81-.12h113.88c-5.21 7.64-11.16 11.26-16.54 15.33q-80 60.55-160.31 120.78c-5 3.74-5.36 7.67-3.59 13.29q26.93 85.53 53.57 171.16c3.87 12.38 7.83 24.74 11.63 37.15.76 2.49 2.1 5.06.4 8.85-4.16-2.73-8.35-5.13-12.18-8q-82.49-62.4-164.82-125c-4.89-3.73-8.17-3.7-13 0-16.78 13-34.07 25.23-50.78 38.29-5.57 4.35-10.76 5-17 2.91C198 490.41 175.38 478.67 157 459c-3.47-3.71-2.68-6.83-1.49-10.64 7.82-25.06 15.46-50.19 23.56-75.15 2.17-6.7.41-10.67-4.82-14.58C140 333.07 106 307.28 71.82 281.59q-32.47-24.43-65-48.8a62.8 62.8 0 0 1-5.44-4.53c-2.21-2.09-1.76-3.82 1.16-4.24a54.86 54.86 0 0 1 7.82-.24c68 0 135.92-.12 203.89.12 7.91 0 13.46-2 18.42-9 17.42-24.67 36.7-47.66 59.08-67.69a342.45 342.45 0 0 1 35.55-27.69c4.6-3.14 7.8-3.29 9.62 3.21 2.61 9.29 5.63 18.46 8.56 27.65 1.49 4.65.26 8-3.42 11.11-24.54 20.55-47 43.31-65.9 69.65-17.84 24.86-31.52 52.09-39.73 82.15z" fill="#1ba0d8"></path><path d="M340.62 510.75c-.21 2.82-2.6 3-4.36 3.7-40.36 15.47-81.73 26.23-125 23.84-47.17-2.6-90-17.36-123.57-54.34-24.45-27-37.92-59.27-40.78-96.08a221.33 221.33 0 0 1 10.84-86.81c2.39-7.28 5.15-8.5 11-3.83q17.37 13.77 35.16 26.82c4.17 3.08 5.19 6.69 4.39 11.72-8.07 50.28 4.56 94.5 37.72 131.57 25.73 28.76 58.75 43.58 95.77 49.2 30.62 4.65 60.73.81 90.69-5.72a66.57 66.57 0 0 1 6.82-1.06c.38-.05.85.62 1.32.99zM448.58 45c-9 .72-17.22 1.51-25.45 2-45.2 2.79-86.89 18.06-126.75 39.39-39.09 20.92-73.59 48.42-104.09 81.38a350.68 350.68 0 0 0-27.88 34.85c-3.06 4.29-6.76 6.4-11.79 6.38h-40.07c-2.27 0-5.11.37-6.1-2.36-.92-2.54 1.17-4.53 2.55-6.42a412.82 412.82 0 0 1 126.2-114C273.76 63.64 314.79 48.14 358.56 41c26.55-4.34 53.21-4.06 79.84-.46 3.31.46 6.83.96 10.18 4.46z" fill="#70c6be"></path><path d="M420.73 60.54c-9.5 3.05-19.06 5.91-28.49 9.19-46.84 16.27-86.73 44.44-122.68 79.1a337.43 337.43 0 0 0-46.17 54.24c-2.52 3.75-5.55 6-10.07 6-9.87-.07-19.73 0-29.6 0-2.29 0-5 .18-6.26-2.26-1.61-3.09 1.05-5.05 2.57-7.08a397 397 0 0 1 76.64-77.46c39.35-30.06 82-52.66 130.69-61 10.91-1.95 21.95-4.12 33.37-.73z" fill="#70c6be"></path><path d="M112.21 589.05c2.07-14 8.06-26.78 12-40.17 4.59-15.54 5-15.3 19.53-10.31 6.31 2.18 12.74 4 19.14 5.86 5.29 1.55 6.35 4.6 1.88 8-16.73 12.8-33.69 25.29-50.56 37.89zM287.11 44.94c-3.83 0-5.07-2.13-4.28-4.77 3.77-12.64 7.68-25.25 11.85-37.75 1.15-3.44 3.56-3.06 4.64.2 3.38 10.24 6.52 20.57 9.67 30.89a3.48 3.48 0 0 1-2.07 4.49c-6.78 2.49-13.63 4.78-19.81 6.94z" fill="#1ba0d8"></path></g></g></svg></svg> <!----></g></g> <g transform="translate(67,29.74921417236328)"><g data-gra="path-name" fill-rule="" class="tp-name iconsvg-namesvg"><g transform="scale(1)"><g><path d="" transform="translate(0, 0)"></path></g> <!----> <!----> <!----> <!----> <!----> <!----> <!----></g></g> <!----></g></g><defs v-gra="od"></defs></svg>